<?xml version="1.0" standalone="no"?>
<!DOCTYPE svg PUBLIC "-//W3C//DTD SVG 20010904//EN"
 "http://www.w3.org/TR/2001/REC-SVG-20010904/DTD/svg10.dtd">
<svg version="1.0" xmlns="http://www.w3.org/2000/svg"
 width="649.000000pt" height="579.000000pt" viewBox="0 0 649.000000 579.000000"
 preserveAspectRatio="xMidYMid meet">

<g transform="translate(0.000000,579.000000) scale(0.100000,-0.100000)"
fill="#FFFFFF" stroke="none">
<path d="M3210 5623 c-25 -8 -47 -18 -50 -22 -5 -6 -20 -17 -85 -61 -46 -32
-126 -103 -272 -241 -50 -48 -185 -192 -248 -265 -27 -32 -65 -75 -82 -95 -18
-20 -33 -40 -33 -45 0 -5 -9 -15 -20 -22 -11 -7 -20 -17 -20 -23 0 -7 -6 -17
-14 -23 -21 -17 -236 -305 -236 -316 0 -6 -5 -10 -10 -10 -6 0 -15 -11 -20
-25 -5 -14 -14 -25 -20 -25 -5 0 -10 -5 -10 -12 0 -6 -10 -25 -23 -42 -13 -17
-26 -39 -30 -48 -3 -10 -11 -18 -17 -18 -5 0 -10 -6 -10 -14 0 -7 -7 -20 -17
-27 -9 -8 -22 -29 -30 -46 -7 -18 -18 -33 -23 -33 -6 0 -10 -6 -10 -13 0 -7
-17 -40 -39 -73 -21 -32 -37 -62 -34 -66 2 -5 0 -8 -6 -8 -10 0 -19 -14 -57
-90 -10 -19 -21 -37 -25 -40 -3 -3 -12 -22 -20 -42 -7 -21 -16 -38 -20 -38 -4
0 -10 -11 -13 -24 -3 -14 -12 -31 -19 -38 -16 -16 -63 -114 -72 -151 -4 -15
-11 -27 -16 -27 -4 0 -14 -18 -20 -40 -7 -22 -15 -40 -19 -40 -5 0 -11 -12
-15 -27 -3 -16 -17 -52 -31 -80 -13 -29 -27 -66 -30 -83 -4 -16 -10 -30 -15
-30 -5 0 -9 -8 -9 -17 0 -10 -11 -42 -25 -71 -13 -28 -27 -68 -31 -87 -3 -19
-10 -35 -14 -35 -4 0 -13 -27 -20 -60 -7 -33 -16 -60 -20 -60 -4 0 -13 -27
-20 -60 -7 -33 -16 -60 -20 -60 -4 0 -13 -29 -20 -65 -7 -36 -16 -67 -20 -70
-5 -3 -14 -37 -20 -75 -6 -39 -16 -70 -22 -70 -6 0 -8 -11 -6 -25 3 -13 2 -26
-3 -27 -4 -2 -13 -40 -21 -86 -7 -45 -15 -82 -19 -82 -4 0 -13 -38 -20 -85 -7
-47 -15 -85 -19 -85 -3 0 -12 -42 -19 -93 -8 -50 -17 -97 -22 -102 -4 -6 -13
-48 -19 -95 -6 -47 -15 -89 -19 -95 -5 -5 -14 -61 -21 -122 -8 -62 -17 -113
-20 -113 -4 0 -13 -65 -20 -145 -7 -80 -17 -145 -22 -145 -5 0 -8 -26 -6 -57
3 -57 2 -58 -47 -112 -27 -29 -58 -61 -69 -70 -10 -9 -44 -41 -76 -71 -31 -30
-72 -66 -89 -80 -18 -13 -43 -33 -56 -45 -13 -11 -35 -29 -49 -40 -15 -11 -32
-25 -39 -30 -6 -6 -31 -19 -54 -29 -24 -11 -43 -23 -43 -27 0 -4 -9 -11 -20
-14 -11 -3 -26 -12 -32 -19 -7 -6 -34 -22 -59 -34 -36 -18 -63 -22 -137 -22
l-92 0 0 -27 c0 -44 10 -51 98 -63 82 -11 202 1 202 20 0 4 15 11 33 14 17 3
53 17 79 31 26 14 54 25 63 25 8 0 15 4 15 9 0 5 10 11 23 15 12 3 31 12 42
21 11 8 43 30 70 47 28 18 62 41 76 52 15 12 38 30 53 40 15 11 39 30 54 43
15 13 33 28 40 34 9 8 12 -6 12 -65 0 -41 4 -77 9 -80 5 -3 14 -26 20 -51 6
-25 15 -45 20 -45 6 0 13 -9 16 -21 13 -39 101 -116 149 -130 58 -17 216 -1
216 21 0 5 8 11 18 14 10 4 32 19 49 34 36 33 153 186 153 200 0 6 6 15 13 19
7 4 19 23 26 41 8 17 17 32 21 32 5 0 13 14 19 30 5 17 15 30 22 30 6 0 9 7 5
15 -3 8 -1 15 4 15 6 0 10 7 10 15 0 7 7 18 16 23 9 5 16 12 15 15 -1 14 30
77 38 77 4 0 14 18 21 40 7 22 17 40 22 40 4 0 8 6 8 14 0 7 11 30 25 50 14
20 28 48 31 61 3 14 10 25 14 25 4 0 13 12 20 28 6 15 24 50 40 77 17 28 37
65 45 83 8 17 19 32 23 32 4 0 13 14 21 32 8 17 21 39 30 48 9 9 23 27 31 40
8 13 23 32 33 42 9 10 17 20 17 23 0 6 86 122 111 150 44 48 105 123 120 145
l17 25 -5 -27 c-3 -16 -9 -28 -13 -28 -4 0 -10 -19 -14 -41 -4 -23 -15 -60
-25 -83 -11 -22 -22 -58 -26 -78 -4 -21 -11 -38 -15 -38 -4 0 -11 -16 -14 -35
-4 -19 -12 -40 -19 -47 -7 -7 -18 -32 -25 -55 -7 -24 -17 -43 -22 -43 -4 0
-12 -15 -15 -32 -4 -18 -13 -40 -20 -48 -7 -8 -18 -33 -25 -55 -7 -22 -16 -42
-20 -45 -10 -6 -44 -82 -42 -92 1 -5 -2 -8 -6 -8 -5 0 -15 -18 -22 -40 -7 -22
-17 -40 -22 -40 -4 0 -8 -8 -8 -17 0 -10 -8 -32 -19 -48 -10 -17 -23 -47 -30
-68 -7 -20 -16 -37 -20 -37 -4 0 -14 -18 -21 -40 -7 -22 -16 -40 -20 -40 -4 0
-13 -18 -20 -40 -7 -22 -16 -40 -20 -40 -4 0 -13 -20 -20 -45 -7 -25 -17 -45
-22 -45 -6 0 -8 -7 -4 -15 3 -8 1 -15 -4 -15 -6 0 -10 -4 -10 -9 0 -5 -5 -22
-12 -38 -6 -15 -11 -31 -10 -35 1 -5 -3 -8 -8 -8 -6 0 -10 -4 -10 -10 0 -5
-11 -34 -25 -64 -14 -30 -25 -59 -25 -65 0 -5 -8 -17 -17 -26 -20 -21 -24
-116 -5 -123 7 -2 12 -9 12 -16 0 -7 18 -21 39 -31 62 -27 107 -14 157 48 6 7
17 36 24 65 8 29 17 52 21 52 4 0 10 12 14 27 3 15 15 47 26 70 11 24 22 57
26 73 3 17 10 30 15 30 5 0 6 4 3 10 -3 5 -1 10 4 10 6 0 11 7 11 17 0 9 11
40 25 69 14 30 28 67 31 84 4 16 10 30 14 30 4 0 14 20 21 45 7 25 16 45 20
45 4 0 10 12 14 27 12 49 24 56 60 35 17 -11 49 -25 71 -32 21 -7 44 -16 49
-20 17 -12 124 -19 383 -25 255 -6 256 -6 557 40 55 9 107 20 116 24 9 5 66
17 127 27 61 10 109 21 107 24 -2 4 34 13 80 20 47 7 85 16 85 20 0 4 36 13
80 21 44 7 80 16 80 19 0 4 34 13 75 20 41 7 75 16 75 20 0 4 33 13 73 20 39
7 77 16 82 20 6 5 39 14 75 20 36 7 70 16 75 20 6 5 39 14 75 20 36 7 70 16
75 21 6 4 53 15 105 25 52 10 97 21 100 25 3 3 38 12 78 19 39 7 72 17 72 21
0 4 38 13 85 20 47 7 85 16 85 20 0 4 41 13 90 20 50 7 90 16 90 20 0 4 39 13
88 20 48 6 92 15 97 19 6 4 44 13 85 20 41 7 80 16 85 20 6 4 38 13 73 20 34
7 65 16 67 21 3 4 28 15 55 24 28 9 50 20 50 24 0 4 12 14 27 22 34 17 40 23
133 112 103 99 170 177 170 196 -1 19 -23 51 -36 51 -6 0 -27 -9 -49 -20 -22
-11 -45 -20 -51 -20 -7 0 -36 -16 -65 -35 -30 -19 -69 -40 -89 -46 -19 -7 -37
-16 -40 -20 -3 -5 -42 -14 -85 -21 -44 -6 -82 -15 -85 -18 -3 -4 -47 -13 -97
-20 -51 -7 -93 -16 -93 -20 0 -4 -45 -13 -100 -20 -55 -7 -100 -16 -100 -20 0
-4 -40 -13 -90 -21 -49 -7 -90 -16 -90 -19 0 -4 -38 -13 -85 -20 -47 -7 -85
-16 -85 -20 0 -3 -37 -12 -82 -20 -46 -7 -88 -16 -93 -21 -6 -4 -51 -15 -100
-24 -50 -9 -94 -21 -100 -25 -5 -4 -45 -14 -87 -21 -43 -7 -78 -16 -78 -20 0
-4 -34 -13 -75 -20 -41 -7 -75 -16 -75 -20 0 -4 -31 -13 -70 -20 -38 -7 -70
-15 -70 -19 0 -4 -34 -13 -75 -20 -42 -7 -78 -16 -80 -21 -3 -4 -39 -13 -80
-20 -41 -6 -75 -15 -75 -19 0 -4 -36 -13 -80 -21 -44 -7 -80 -16 -80 -19 0 -4
-35 -13 -77 -20 -43 -6 -82 -16 -88 -20 -5 -4 -59 -16 -120 -26 -60 -9 -112
-20 -115 -24 -3 -4 -59 -13 -125 -20 -66 -8 -122 -17 -125 -21 -9 -14 -583
-14 -588 -1 -2 7 -11 12 -20 12 -10 0 -13 3 -7 8 6 4 17 26 23 49 7 24 16 43
21 43 4 0 13 16 21 35 8 19 17 35 20 35 4 0 12 11 18 25 6 13 22 37 36 52 14
15 26 32 28 38 3 10 32 43 103 119 81 86 92 124 53 183 -42 61 -116 57 -176
-8 -80 -88 -95 -102 -88 -83 5 10 11 28 14 39 2 11 8 25 12 30 4 6 13 39 20
75 7 36 17 68 22 71 14 9 14 252 0 257 -7 2 -12 10 -12 17 0 16 -22 25 -60 25
-34 0 -86 -42 -155 -123 -28 -33 -61 -72 -75 -86 -14 -15 -41 -47 -60 -70 -19
-24 -42 -51 -50 -60 -33 -36 -181 -233 -195 -261 -9 -17 -20 -30 -25 -30 -6 0
-10 -7 -10 -15 0 -7 -6 -18 -13 -22 -6 -4 -19 -21 -27 -38 -17 -33 -52 -89
-75 -120 -8 -10 -15 -25 -15 -32 0 -6 -6 -16 -13 -20 -7 -4 -19 -23 -26 -40
-8 -18 -17 -33 -21 -33 -4 0 -13 -13 -20 -30 -7 -16 -16 -30 -19 -30 -4 0 -13
-16 -21 -35 -8 -19 -17 -35 -21 -35 -4 0 -14 -18 -23 -40 -9 -22 -20 -40 -26
-40 -5 0 -10 -4 -10 -10 0 -5 -19 -38 -43 -73 -24 -34 -46 -70 -50 -80 -3 -9
-10 -17 -15 -17 -4 0 -14 -16 -22 -35 -8 -19 -18 -35 -22 -35 -5 0 -13 -11
-18 -25 -5 -14 -14 -25 -20 -25 -5 0 -10 -6 -10 -13 0 -19 -83 -107 -101 -107
-20 0 -55 37 -68 73 -6 16 -11 104 -11 206 l0 178 51 59 c28 32 67 74 85 91
19 18 34 37 34 42 0 6 8 16 18 23 11 7 25 24 32 38 7 14 21 31 32 38 10 7 18
19 18 27 0 7 4 15 9 17 7 3 72 81 129 156 9 13 25 32 35 43 9 10 17 23 17 29
0 5 9 15 20 22 11 7 20 18 20 24 0 5 8 19 18 30 9 10 30 39 47 63 16 24 35 45
42 48 7 3 13 10 13 17 1 6 14 27 30 46 17 19 30 38 30 42 0 4 8 17 18 27 30
34 39 47 56 79 9 18 21 32 26 32 6 0 10 5 10 10 0 6 23 39 50 74 28 35 50 69
50 75 0 6 5 11 10 11 6 0 15 11 20 25 5 14 13 25 18 25 4 0 14 16 22 35 7 19
19 36 27 39 7 3 13 12 13 20 0 8 6 19 13 23 6 4 21 24 31 43 11 19 22 37 25
40 3 3 20 25 36 50 17 25 33 47 38 48 4 2 5 8 1 13 -3 5 -1 9 4 9 4 0 14 16
22 35 8 19 17 35 21 35 4 0 11 9 14 20 3 11 12 26 18 33 23 25 58 77 67 102 5
14 13 25 18 25 4 0 14 16 22 35 8 19 17 35 21 35 4 0 12 14 18 30 5 17 15 30
22 30 6 0 9 7 5 15 -3 8 -1 15 4 15 6 0 10 7 10 15 0 7 8 18 18 24 9 5 17 13
16 18 -2 15 26 73 35 73 5 0 12 11 15 24 3 14 12 31 19 38 7 7 28 43 47 81 19
37 37 67 40 67 4 0 13 18 20 40 7 22 17 40 22 40 4 0 8 6 8 14 0 7 11 30 25
50 14 20 28 48 31 61 3 14 10 25 16 25 5 0 6 5 3 10 -3 6 -2 10 2 10 9 0 37
59 34 73 0 4 3 7 9 7 5 0 10 4 10 10 0 5 11 33 24 62 13 29 27 63 31 76 3 12
10 22 14 22 4 0 13 18 20 40 6 22 16 40 21 40 6 0 10 8 10 18 0 9 11 40 25 67
13 28 25 54 25 58 0 5 11 33 25 63 14 30 25 61 25 69 0 8 4 15 9 15 5 0 13 15
16 33 4 17 13 43 21 57 15 28 49 141 46 153 -1 4 2 7 6 7 5 0 15 26 22 58 7
31 16 62 20 67 5 6 14 41 20 78 7 37 15 67 20 67 4 0 13 35 19 78 7 42 17 86
22 97 16 36 29 211 29 384 0 166 0 170 -25 199 -48 57 -171 78 -265 45z m65
-392 c-4 -61 -10 -111 -14 -111 -4 0 -13 -43 -20 -95 -8 -52 -17 -95 -21 -95
-4 0 -12 -31 -19 -70 -7 -38 -16 -70 -20 -70 -4 0 -13 -27 -19 -60 -7 -33 -16
-60 -21 -60 -5 0 -14 -27 -21 -60 -7 -33 -16 -60 -20 -60 -3 0 -13 -23 -20
-51 -8 -27 -18 -53 -22 -55 -5 -3 -6 -10 -3 -15 4 -5 2 -9 -3 -9 -6 0 -13 -16
-16 -35 -4 -19 -13 -41 -21 -48 -7 -8 -18 -33 -25 -55 -6 -23 -15 -42 -20 -42
-6 0 -10 -6 -10 -13 0 -7 -9 -30 -20 -52 -11 -21 -25 -54 -31 -74 -7 -20 -15
-38 -19 -41 -9 -6 -84 -164 -81 -169 2 -2 -1 -7 -6 -10 -9 -6 -30 -50 -31 -65
0 -5 -4 -12 -9 -15 -4 -3 -16 -22 -25 -41 -25 -50 -86 -163 -95 -175 -5 -6
-24 -42 -43 -80 -19 -38 -51 -94 -70 -124 -20 -31 -47 -77 -60 -103 -14 -27
-29 -48 -33 -48 -5 0 -5 -4 -2 -10 3 -5 2 -10 -3 -10 -4 0 -14 -16 -22 -35 -8
-19 -17 -35 -22 -35 -4 0 -8 -6 -8 -13 0 -7 -13 -31 -30 -53 -16 -21 -30 -45
-30 -51 0 -7 -4 -13 -8 -13 -5 0 -16 -15 -25 -32 -10 -18 -26 -46 -37 -63 -11
-16 -30 -47 -42 -69 -35 -59 -41 -69 -65 -103 -13 -17 -23 -36 -23 -42 0 -5
-6 -14 -12 -18 -7 -4 -19 -17 -26 -28 -36 -57 -52 -81 -60 -91 -5 -5 -15 -21
-22 -34 -7 -13 -17 -29 -21 -34 -5 -6 -43 -62 -84 -124 -86 -129 -115 -171
-132 -189 -6 -7 -15 -22 -18 -33 -3 -11 -10 -20 -15 -20 -5 0 -12 -9 -15 -20
-3 -11 -12 -26 -18 -33 -7 -7 -28 -35 -46 -62 -19 -28 -40 -53 -45 -57 -6 -4
-7 -8 -3 -8 8 0 -2 -13 -35 -51 -10 -10 -18 -22 -18 -25 0 -3 -13 -23 -30 -44
-16 -21 -30 -43 -30 -49 0 -6 -5 -11 -10 -11 -6 0 -15 -11 -20 -25 -5 -14 -14
-25 -20 -25 -5 0 -10 -6 -10 -12 0 -12 -13 -30 -70 -96 -11 -13 -20 -26 -20
-29 0 -3 -9 -16 -20 -31 l-21 -25 7 59 c4 32 10 61 14 64 3 3 12 48 19 100 6
52 16 99 20 105 5 5 14 54 21 107 8 54 17 98 21 98 3 0 12 37 19 83 7 45 16
84 19 87 4 3 13 41 20 85 7 44 18 86 23 93 6 7 8 15 5 19 -4 3 -3 11 1 17 5 6
15 44 22 84 7 39 16 72 20 72 3 0 12 28 19 63 7 34 16 67 21 72 4 6 11 28 15
50 4 22 15 58 25 80 10 22 21 57 25 78 4 20 11 37 15 37 4 0 12 25 19 55 7 30
16 55 20 55 4 0 13 23 20 50 7 28 17 50 21 50 5 0 14 25 21 55 7 30 15 55 19
55 3 0 14 22 24 50 10 27 26 66 37 87 10 20 19 43 19 50 0 7 4 13 9 13 5 0 13
10 16 23 9 27 58 130 66 137 6 5 19 28 55 100 10 19 21 37 25 40 3 3 12 22 20
44 8 21 20 41 26 43 7 3 13 11 13 18 0 7 7 18 15 25 8 7 12 16 9 21 -3 5 0 9
5 9 6 0 11 5 11 11 0 6 14 30 30 54 17 24 30 48 30 53 0 6 7 12 15 16 8 3 15
12 15 19 0 8 6 20 14 26 8 7 22 27 31 46 9 19 20 35 25 35 6 0 10 6 10 14 0 7
6 19 14 25 8 7 22 27 31 46 9 19 20 35 25 35 6 0 10 4 10 10 0 12 98 144 111
148 5 2 9 8 9 13 0 13 151 209 161 209 5 0 9 6 9 13 0 7 15 29 33 49 17 19 55
62 82 94 60 71 315 325 374 374 24 19 50 42 60 50 25 22 66 48 70 44 2 -1 0
-53 -4 -113z"/>
</g>
</svg>
